<svg xmlns="http://www.w3.org/2000/svg" viewBox="0 0 64 64"><defs><style>.cls-1{fill:#7c828d;}.cls-2{fill:#ffd7a3;}.cls-3{fill:#fdc88e;}.cls-4{fill:#6e6e79;}.cls-5{fill:#d0d7dc;}.cls-6{fill:#ffb422;}.cls-7{fill:#2d91c0;}.cls-8{fill:#c55f54;}.cls-9{fill:#29394a;}</style></defs><title>09-warehouse</title><g id="_09-warehouse" data-name="09-warehouse"><rect class="cls-1" x="20" y="51" width="4" height="6"/><rect class="cls-1" x="32" y="51" width="4" height="6"/><polygon class="cls-2" points="28 51 28 63 16 63 16 51 20 51 20 57 24 57 24 51 28 51"/><polygon class="cls-3" points="40 51 40 63 28 63 28 51 32 51 32 57 36 57 36 51 40 51"/><rect class="cls-1" x="12" y="35" width="40" height="4"/><path class="cls-4" d="M52,33v2H12V33a2.006,2.006,0,0,1,2-2H50A2.006,2.006,0,0,1,52,33Z"/><polygon class="cls-5" points="52 39 52 63 40 63 40 51 36 51 32 51 28 51 24 51 20 51 16 51 16 63 12 63 12 39 52 39"/><path class="cls-6" d="M50,23v3H44V23a3,3,0,0,1,6,0Z"/><path class="cls-6" d="M40,23v3H34V23a3,3,0,0,1,6,0Z"/><path class="cls-6" d="M30,23v3H24V23a3,3,0,0,1,6,0Z"/><path class="cls-6" d="M20,23v3H14V23a3,3,0,0,1,6,0Z"/><path class="cls-7" d="M59,19.4V63H52V33a2.006,2.006,0,0,0-2-2H14a2.006,2.006,0,0,0-2,2V63H5V19.4L32,5ZM50,26V23a3,3,0,0,0-6,0v3ZM40,26V23a3,3,0,0,0-6,0v3ZM30,26V23a3,3,0,0,0-6,0v3ZM20,26V23a3,3,0,0,0-6,0v3Z"/><polygon class="cls-8" points="59 19.4 32 5 5 19.4 2 21 2 17 32 1 62 17 62 21 59 19.4"/><path class="cls-9" d="M62.471,16.118l-30-16a1,1,0,0,0-.942,0l-30,16A1,1,0,0,0,1,17v4a1,1,0,0,0,1.471.882L4,21.067V63a1,1,0,0,0,1,1H59a1,1,0,0,0,1-1V21.067l1.529.815A1,1,0,0,0,63,21V17A1,1,0,0,0,62.471,16.118ZM51,34H13V33a1,1,0,0,1,1-1H50a1,1,0,0,1,1,1ZM13,36H51v2H13Zm8,16h2v4H21Zm-1,6h4a1,1,0,0,0,1-1V52h2V62H17V52h2v5A1,1,0,0,0,20,58Zm19,4H29V52h2v5a1,1,0,0,0,1,1h4a1,1,0,0,0,1-1V52h2ZM33,52h2v4H33ZM51,62H41V51a1,1,0,0,0-1-1H16a1,1,0,0,0-1,1V62H13V40H51Zm7,0H53V33a3,3,0,0,0-3-3H14a3,3,0,0,0-3,3V62H6V20L32,6.133,58,20Zm3-42.667-1.529-.815-27-14.4a1,1,0,0,0-.942,0L3,19.333V17.6L32,2.133,61,17.6Z"/><path class="cls-9" d="M17,19a4,4,0,0,0-4,4v3a1,1,0,0,0,1,1h6a1,1,0,0,0,1-1V23a4,4,0,0,0-4-4Zm2,6H15V23a2,2,0,0,1,4,0Z"/><path class="cls-9" d="M27,19a4,4,0,0,0-4,4v3a1,1,0,0,0,1,1h6a1,1,0,0,0,1-1V23a4,4,0,0,0-4-4Zm2,6H25V23a2,2,0,0,1,4,0Z"/><path class="cls-9" d="M34,27h6a1,1,0,0,0,1-1V23a4,4,0,0,0-8,0v3A1,1,0,0,0,34,27Zm1-4a2,2,0,0,1,4,0v2H35Z"/><path class="cls-9" d="M44,27h6a1,1,0,0,0,1-1V23a4,4,0,0,0-8,0v3A1,1,0,0,0,44,27Zm1-4a2,2,0,0,1,4,0v2H45Z"/></g></svg>